<svg id="Group_32600" data-name="Group 32600" xmlns="http://www.w3.org/2000/svg" xmlns:xlink="http://www.w3.org/1999/xlink" width="9.19" height="16.685" viewBox="0 0 9.19 16.685">
  <defs>
    <clipPath id="clip-path">
      <rect id="Rectangle_22155" data-name="Rectangle 22155" width="9.19" height="16.685" fill="none"/>
    </clipPath>
  </defs>
  <g id="Group_32599" data-name="Group 32599" clip-path="url(#clip-path)">
    <path id="Path_46628" data-name="Path 46628" d="M8.507,0a1.178,1.178,0,0,1,.487.307.835.835,0,0,1,.021,1.04,2.044,2.044,0,0,1-.175.192Q5.5,4.875,2.165,8.208c-.114.113-.107.165,0,.274q3.353,3.342,6.7,6.691a.858.858,0,0,1,.218,1.075.838.838,0,0,1-1.247.263,1.95,1.95,0,0,1-.18-.165L.338,9.031a.868.868,0,0,1,0-1.376Q3.929,4.066,7.518.476A1.7,1.7,0,0,1,8.181,0Z" transform="translate(0)"/>
  </g>
</svg>
